<?xml version="1.0" standalone="no"?>
<!DOCTYPE svg PUBLIC "-//W3C//DTD SVG 20010904//EN"
 "http://www.w3.org/TR/2001/REC-SVG-20010904/DTD/svg10.dtd">
<svg version="1.0" xmlns="http://www.w3.org/2000/svg"
 width="321.000000pt" height="321.000000pt" viewBox="0 0 321.000000 321.000000"
 preserveAspectRatio="xMidYMid meet">
<metadata>
Created by potrace 1.11, written by Peter Selinger 2001-2013
</metadata>
<g transform="translate(0.000000,321.000000) scale(0.100000,-0.100000)"
fill="#000000" stroke="none">
<path d="M1455 3039 c-546 -57 -1022 -434 -1198 -949 -60 -174 -71 -249 -71
-470 0 -187 2 -215 26 -317 134 -565 572 -983 1143 -1089 131 -25 372 -25 500
0 400 76 748 311 956 647 151 243 213 466 213 764 -1 185 -18 294 -70 451
-180 535 -649 906 -1223 964 -115 11 -160 11 -276 -1z m345 -44 c455 -69 840
-347 1045 -755 51 -102 82 -185 113 -310 24 -96 26 -122 26 -310 1 -191 -1
-212 -27 -314 -67 -265 -175 -462 -356 -650 -287 -295 -654 -441 -1065 -423
-231 10 -425 67 -628 184 -119 68 -190 124 -296 233 -199 204 -330 457 -378
730 -22 129 -23 356 0 478 69 376 286 707 603 920 34 23 64 42 68 42 3 0 22
11 43 23 97 62 328 136 483 156 104 14 267 12 369 -4z"/>
<path d="M1637 2923 c-4 -3 -7 -39 -7 -80 l0 -73 40 0 c29 0 40 4 40 15 0 10
-10 15 -29 15 l-29 0 6 65 c4 60 -2 78 -21 58z"/>
<path d="M1466 2849 c-16 -68 -14 -95 5 -84 5 4 9 15 9 26 0 27 34 25 53 -3 8
-13 18 -20 23 -16 11 11 -45 148 -61 148 -8 0 -19 -27 -29 -71z m44 0 c0 -5
-4 -9 -10 -9 -5 0 -10 7 -10 16 0 8 5 12 10 9 6 -3 10 -10 10 -16z"/>
<path d="M1351 2868 c15 -53 11 -55 -26 -14 -22 25 -39 36 -44 30 -12 -12 22
-151 35 -144 10 5 10 15 0 57 -7 28 -6 27 30 -10 43 -46 60 -38 46 19 -6 22
-13 51 -16 67 -4 15 -13 27 -20 27 -12 0 -13 -7 -5 -32z"/>
<path d="M1964 2834 c-5 -19 0 -32 21 -54 24 -25 26 -30 12 -36 -20 -7 -37 3
-37 22 0 16 -16 19 -25 4 -11 -18 23 -60 48 -60 51 0 64 55 20 90 -19 15 -23
24 -16 31 14 14 33 3 33 -17 0 -8 7 -14 15 -14 18 0 20 31 3 48 -7 7 -25 12
-40 12 -21 0 -29 -6 -34 -26z"/>
<path d="M1138 2839 c-26 -15 -24 -89 3 -118 29 -31 80 -26 93 10 24 70 -39
141 -96 108z m62 -38 c14 -27 13 -56 -4 -70 -29 -24 -76 56 -49 82 13 14 43 7
53 -12z"/>
<path d="M2123 2785 c-30 -21 -49 -85 -34 -114 17 -32 73 -29 100 5 37 47 20
124 -27 124 -10 0 -27 -7 -39 -15z m56 -29 c25 -30 -30 -101 -57 -74 -16 16
-15 39 4 66 17 25 36 28 53 8z"/>
<path d="M988 2753 c27 -66 65 -124 74 -115 13 13 -47 132 -67 132 -10 0 -12
-6 -7 -17z"/>
<path d="M2259 2681 c-38 -39 -41 -96 -5 -112 34 -16 82 12 59 34 -3 4 -12 2
-20 -5 -11 -9 -18 -8 -31 5 -15 16 -15 19 4 44 28 37 61 42 66 11 4 -27 22
-27 26 0 4 24 -23 52 -49 52 -12 0 -34 -13 -50 -29z"/>
<path d="M845 2684 c-11 -8 -27 -19 -35 -24 -12 -7 -12 -11 -3 -21 9 -9 16 -9
25 -1 10 8 21 -1 48 -38 19 -27 38 -49 43 -50 17 -1 5 35 -24 72 -24 29 -29
42 -20 51 28 28 0 37 -34 11z"/>
<path d="M1410 2675 c-357 -65 -658 -309 -798 -647 -59 -143 -76 -234 -75
-413 0 -140 3 -172 27 -260 31 -119 115 -294 185 -386 104 -136 250 -253 405
-324 478 -218 1043 -61 1336 370 126 186 180 368 180 605 0 244 -60 435 -198
628 -159 224 -425 388 -702 432 -88 14 -269 11 -360 -5z m392 -40 c40 -9 100
-25 133 -36 59 -20 203 -88 210 -99 2 -3 -5 -17 -15 -30 -18 -24 -23 -25 -164
-28 -142 -4 -146 -3 -146 17 0 20 6 21 143 24 l142 3 -152 2 c-128 2 -153 0
-153 -12 0 -12 -22 -15 -122 -15 -169 1 -158 3 -158 -26 l0 -25 -140 0 -140 0
0 -60 0 -60 -140 0 -140 0 0 -110 0 -110 -140 0 c-87 0 -140 -4 -140 -10 0 -6
53 -10 140 -10 l140 0 0 -110 0 -110 88 0 87 0 -47 -40 c-28 -25 -53 -57 -63
-84 -14 -37 -20 -42 -40 -38 -28 5 -118 -34 -162 -72 -18 -15 -38 -43 -45 -61
-12 -34 -14 -35 -65 -35 -30 0 -53 -4 -53 -11 0 -5 -13 -15 -30 -20 -17 -7
-30 -18 -30 -28 0 -14 10 -17 59 -16 77 0 115 -25 119 -79 2 -20 -3 -50 -11
-66 -17 -33 -11 -49 9 -22 7 9 18 17 26 17 7 0 19 15 27 33 13 29 19 32 58 32
24 0 63 9 88 21 53 25 123 98 131 138 5 26 10 29 58 34 71 7 147 55 177 112
22 41 25 43 78 48 31 3 66 8 79 12 19 6 22 4 22 -19 l0 -26 140 0 c118 0 140
-2 140 -15 0 -13 23 -15 153 -13 l152 2 -142 3 c-135 3 -143 5 -143 23 0 19 7
20 140 20 87 0 140 4 140 10 0 6 -55 10 -145 10 -120 0 -147 -3 -151 -15 -5
-12 -30 -15 -135 -15 l-129 0 0 34 c0 54 29 66 154 66 83 0 105 -3 110 -15 4
-12 31 -15 152 -15 81 0 145 3 141 6 -3 3 -67 5 -141 5 l-136 -2 0 25 0 25
143 4 142 3 -152 2 c-130 2 -153 0 -153 -13 0 -12 -18 -15 -105 -15 l-105 0
20 33 c11 17 20 40 20 50 0 14 10 17 53 19 74 2 111 -2 115 -13 2 -5 71 -8
155 -7 l152 2 -142 3 c-135 3 -143 5 -143 23 0 19 7 20 141 20 91 0 138 4 134
10 -4 6 -63 10 -145 10 -117 0 -140 -3 -148 -16 -5 -9 -17 -14 -28 -12 -17 4
-16 6 6 15 14 6 34 20 44 32 17 19 31 21 150 23 l131 2 -122 3 c-68 2 -123 7
-123 11 1 28 21 34 118 34 55 1 106 5 114 9 8 5 -13 9 -52 9 l-65 0 44 20 c24
11 49 20 57 20 8 0 13 3 12 8 -2 4 9 23 23 42 25 34 51 94 44 102 -2 2 15 2
37 0 30 -3 43 0 50 12 5 9 16 16 25 16 35 0 2 12 -41 15 -26 1 -52 10 -62 19
-27 28 -30 96 -5 145 l22 42 57 -44 c189 -146 327 -370 383 -622 8 -36 13
-117 12 -205 0 -122 -5 -161 -26 -242 -104 -395 -427 -696 -827 -769 -96 -18
-281 -15 -375 5 -311 67 -564 254 -715 529 -96 176 -142 438 -110 633 70 435
378 766 805 864 104 24 314 26 417 5z m-2 -200 c0 -13 21 -15 130 -15 123 0
130 -1 130 -20 0 -19 -7 -20 -125 -20 -102 0 -127 -3 -131 -15 -5 -12 -30 -15
-135 -15 l-129 0 0 50 0 50 130 0 c109 0 130 -2 130 -15z m-280 -70 l0 -25
140 0 c118 0 140 -2 140 -15 0 -11 11 -15 41 -15 l42 0 -29 -22 c-16 -13 -32
-23 -37 -23 -4 0 -11 -6 -16 -13 -6 -10 -43 -14 -142 -15 l-134 -2 -3 -27 -3
-28 -130 0 -129 0 0 105 0 105 130 0 130 0 0 -25z m595 -105 l5 -45 -14 40
c-8 22 -14 63 -14 90 l1 50 8 -45 c5 -25 11 -65 14 -90z m-151 101 c3 -5 -5
-12 -19 -15 -14 -4 -25 -11 -25 -16 0 -5 -22 -9 -50 -9 -45 1 -50 4 -50 24 0
21 5 23 69 24 38 1 72 -3 75 -8z m103 -33 c-3 -8 -6 -5 -6 6 -1 11 2 17 5 13
3 -3 4 -12 1 -19z m-33 -29 c39 -18 49 -109 16 -151 -28 -36 -73 -42 -126 -19
-53 24 -67 52 -52 108 7 30 18 44 41 56 38 19 87 21 121 6z m-792 -76 l3 -58
138 1 137 2 0 -29 c0 -24 4 -29 25 -29 29 0 30 -7 10 -34 -8 -11 -15 -28 -15
-37 0 -19 -16 -26 -63 -28 -16 0 -52 -14 -81 -30 -29 -16 -68 -29 -87 -29 -72
0 -69 2 -69 -51 l0 -49 -72 -7 c-40 -4 -100 -5 -133 -3 l-60 3 -2 210 c0 115
1 213 3 217 3 5 63 8 134 8 l129 0 3 -57z m618 26 c-7 -12 -9 -43 -5 -77 6
-55 9 -126 6 -147 -1 -5 -10 -21 -21 -35 l-20 -25 10 28 c11 31 7 99 -8 137
-6 16 -6 27 0 31 6 4 7 15 4 25 -3 11 3 33 14 52 22 35 37 45 20 11z m-60 -39
c0 -5 -20 -10 -45 -10 -48 0 -88 -16 -141 -56 -45 -35 -71 -32 -76 9 -8 68
-10 67 133 67 79 0 129 -4 129 -10z m-115 -68 c-3 -3 -11 0 -18 7 -9 10 -8 11
6 5 10 -3 15 -9 12 -12z m-26 -5 c-2 -1 -13 -9 -24 -17 -19 -14 -19 -14 -6 3
7 9 18 17 24 17 6 0 8 -1 6 -3z m124 -35 c28 -15 32 -24 35 -64 2 -37 -2 -51
-23 -77 -24 -27 -33 -31 -78 -31 -65 1 -87 17 -94 69 -8 57 3 89 38 110 36 22
77 20 122 -7z m257 -2 c-8 -5 -22 -9 -30 -9 -10 0 -8 3 5 9 27 12 43 12 25 0z
m-441 -205 c-1 -29 -2 -28 -14 10 -8 22 -13 60 -13 85 l0 45 13 -55 c8 -30 14
-68 14 -85z m-77 50 c21 -8 33 -62 24 -109 -14 -75 -121 -92 -185 -29 -19 19
-18 87 2 117 26 40 92 48 159 21z m-215 -50 c-29 -58 -47 -58 -47 0 0 45 0 45
35 45 l34 0 -22 -45z m25 -45 c-2 -34 1 -66 7 -74 14 -16 5 -101 -12 -127 -12
-16 -13 -12 -12 39 1 31 -4 72 -12 89 -9 23 -10 33 -2 33 7 0 9 9 6 22 -5 17
16 78 26 78 1 0 0 -27 -1 -60z m-182 -56 c0 -1 -11 -9 -25 -18 -25 -16 -25
-16 -14 2 9 15 39 27 39 16z m106 -36 c41 -20 44 -24 44 -63 0 -61 -19 -94
-62 -107 -36 -11 -91 -6 -117 11 -8 5 -16 32 -19 65 -4 53 -3 57 28 86 38 36
67 38 126 8z m289 12 c-3 -5 -12 -10 -18 -10 -7 0 -6 4 3 10 19 12 23 12 15 0z
m-466 -225 c0 -27 -2 -25 -15 15 -7 25 -13 63 -13 85 1 40 1 40 14 -15 8 -30
14 -68 14 -85z m-94 61 c27 -12 35 -22 41 -50 15 -85 -19 -136 -93 -136 -45 0
-100 35 -106 69 -8 41 20 106 51 118 39 15 68 15 107 -1z m-172 -102 c-2 -72
4 -95 19 -73 6 10 7 7 3 -10 -4 -13 -9 -42 -11 -64 -7 -73 -24 -65 -25 11 -1
29 -5 52 -9 52 -4 0 -10 9 -13 20 -3 11 -1 20 5 20 6 0 8 10 5 22 -5 16 17 88
27 88 1 0 0 -30 -1 -66z m-166 -60 c-3 -3 -12 -4 -19 -1 -8 3 -5 6 6 6 11 1
17 -2 13 -5z m373 -24 c0 -5 -5 -10 -11 -10 -5 0 -7 5 -4 10 3 6 8 10 11 10 2
0 4 -4 4 -10z m-93 -56 c-3 -3 -12 -4 -19 -1 -8 3 -5 6 6 6 11 1 17 -2 13 -5z"/>
<path d="M1576 2531 c-4 -6 -13 -8 -21 -5 -12 5 -12 1 -2 -20 15 -33 23 -33
31 0 7 28 2 42 -8 25z"/>
<path d="M1722 2518 c-7 -15 -11 -18 -11 -7 -1 21 -86 26 -106 5 -19 -19 -19
-26 0 -26 8 0 15 -4 15 -9 0 -11 53 -1 62 13 5 7 8 7 8 -2 0 -8 9 -12 23 -11
12 2 28 -1 36 -5 11 -7 13 -3 7 20 -10 41 -21 48 -34 22z m-72 -19 c0 -5 -4
-9 -10 -9 -5 0 -10 7 -10 16 0 8 5 12 10 9 6 -3 10 -10 10 -16z"/>
<path d="M1265 2466 c3 -6 8 -19 11 -28 9 -25 20 -22 28 5 8 32 8 32 -19 33
-17 1 -24 -2 -20 -10z"/>
<path d="M1329 2462 c-13 -15 -13 -20 -2 -30 15 -14 64 -12 75 3 5 6 8 5 8 -2
0 -9 12 -12 35 -10 38 2 37 2 29 33 -7 26 -54 29 -54 4 -1 -11 -3 -10 -11 4
-9 15 -13 16 -20 5 -6 -10 -9 -11 -9 -1 0 18 -33 15 -51 -6z m41 -11 c0 -6 -4
-13 -10 -16 -5 -3 -10 1 -10 9 0 9 5 16 10 16 6 0 10 -4 10 -9z"/>
<path d="M1016 2361 c-4 -6 -13 -8 -22 -4 -12 5 -13 1 -3 -21 15 -33 25 -33
33 0 7 28 2 42 -8 25z"/>
<path d="M1053 2350 c-3 -11 -10 -20 -17 -20 -6 -1 0 -7 14 -14 17 -10 30 -11
42 -5 10 5 18 6 18 2 0 -4 5 -1 10 7 6 10 10 11 10 3 0 -8 13 -12 35 -11 39 1
40 3 20 38 l-14 25 -10 -25 -10 -25 -1 25 c-1 23 -2 23 -10 5 -5 -11 -9 -14
-9 -7 -1 8 -7 12 -13 9 -7 -2 -24 0 -36 5 -19 7 -25 4 -29 -12z m32 -9 c3 -5
1 -12 -5 -16 -5 -3 -10 1 -10 9 0 18 6 21 15 7z"/>
<path d="M765 2126 c3 -6 8 -19 11 -28 9 -25 24 -22 25 5 l0 22 9 -22 c7 -17
17 -21 53 -21 47 0 65 19 46 49 -6 10 -9 8 -9 -8 0 -13 -4 -23 -10 -23 -5 0
-10 8 -10 19 0 16 -8 18 -60 18 -40 0 -59 -4 -55 -11z m85 -16 c0 -5 -4 -10
-10 -10 -5 0 -10 5 -10 10 0 6 5 10 10 10 6 0 10 -4 10 -10z"/>
<path d="M2300 1740 l0 -40 51 2 c42 0 52 4 59 22 9 21 9 21 9 -1 1 -16 7 -23
21 -23 11 0 20 5 20 10 0 6 -7 10 -16 10 -11 0 -14 6 -9 20 7 23 -4 48 -14 32
-3 -5 -26 -12 -51 -15 -25 -2 -37 -2 -27 0 28 7 19 23 -13 23 -28 0 -30 -2
-30 -40z m63 -17 c-7 -2 -21 -2 -30 0 -10 3 -4 5 12 5 17 0 24 -2 18 -5z"/>
<path d="M1610 1739 c0 -3 -12 -6 -27 -5 -22 1 -29 -4 -31 -22 -3 -22 -1 -23
67 -21 39 1 71 6 71 12 0 6 5 6 13 0 6 -6 26 -10 44 -10 l32 0 -16 30 c-10 21
-17 26 -23 17 -6 -9 -9 -9 -15 0 -6 9 -10 9 -16 -1 -7 -12 -9 -12 -9 0 0 11
-3 11 -15 1 -11 -9 -15 -9 -15 -1 0 6 -13 10 -30 9 -16 -1 -30 -5 -30 -9z"/>
<path d="M2257 1653 c-15 -14 -6 -24 16 -18 l22 6 -22 -17 c-43 -31 -29 -43
51 -41 41 1 78 5 82 9 4 4 13 3 20 -3 8 -6 21 -9 29 -5 21 8 19 42 -2 51 -17
7 -16 8 2 15 18 8 17 9 -7 9 -17 1 -28 -5 -31 -16 -4 -16 -5 -16 -6 -1 -1 13
-11 16 -48 16 -27 -1 -51 -6 -55 -12 -5 -8 -8 -7 -8 2 0 13 -32 17 -43 5z m83
-28 c0 -14 -4 -25 -10 -25 -11 0 -14 33 -3 43 11 11 13 8 13 -18z m53 -10 c-7
-21 -13 -19 -13 6 0 11 4 18 10 14 5 -3 7 -12 3 -20z m-88 -5 c3 -5 -1 -10
-10 -10 -9 0 -13 5 -10 10 3 6 8 10 10 10 2 0 7 -4 10 -10z m145 0 c0 -5 -4
-10 -10 -10 -5 0 -10 5 -10 10 0 6 5 10 10 10 6 0 10 -4 10 -10z"/>
<path d="M1108 1354 c-6 -5 1 -76 8 -84 3 -2 7 5 10 17 8 28 44 38 44 12 0
-27 20 -24 21 4 l0 22 9 -22 c13 -31 77 -30 83 1 3 16 5 14 6 -7 0 -16 5 -26
11 -22 5 3 7 12 4 19 -3 8 -1 17 5 21 6 3 11 -2 11 -13 0 -14 8 -19 34 -20 28
-1 35 3 39 21 l4 22 2 -22 c1 -19 7 -23 31 -23 23 0 30 4 30 20 0 11 5 20 10
20 6 0 10 -10 10 -22 0 -19 2 -20 10 -8 8 12 10 10 10 -8 0 -18 5 -23 23 -20
18 2 23 10 25 41 3 31 0 37 -15 37 -11 0 -24 -5 -31 -12 -9 -9 -12 -9 -12 0 0
7 -11 12 -24 12 -13 0 -27 6 -29 13 -4 9 -8 8 -16 -3 -10 -13 -11 -13 -11 0
-1 13 -2 13 -10 -1 -7 -12 -23 -15 -71 -12 -43 3 -65 0 -71 -9 -6 -10 -8 -10
-8 -1 0 8 -14 12 -35 11 -20 -1 -41 4 -47 10 -12 12 -50 16 -60 6z m42 -18 c0
-3 -4 -8 -10 -11 -5 -3 -10 -1 -10 4 0 6 5 11 10 11 6 0 10 -2 10 -4z m90 -25
c0 -6 -4 -13 -10 -16 -5 -3 -10 1 -10 9 0 9 5 16 10 16 6 0 10 -4 10 -9z m135
0 c3 -5 1 -12 -5 -16 -5 -3 -10 1 -10 9 0 18 6 21 15 7z m155 -1 c0 -5 -4 -10
-10 -10 -5 0 -10 5 -10 10 0 6 5 10 10 10 6 0 10 -4 10 -10z"/>
<path d="M1584 1346 c-3 -8 -4 -27 -2 -43 2 -24 7 -27 28 -24 14 1 28 8 32 15
6 8 8 8 8 -1 0 -23 20 -14 21 10 l0 22 11 -22 c12 -25 53 -32 62 -10 3 8 9 6
20 -7 23 -29 31 -12 15 30 -19 50 -33 52 -52 7 -14 -36 -15 -36 -10 -7 3 18 0
35 -6 38 -7 5 -11 -2 -11 -16 l0 -22 -16 22 c-12 17 -19 20 -29 12 -9 -8 -15
-8 -20 0 -9 15 -45 12 -51 -4z m44 -29 c2 -10 -3 -17 -12 -17 -10 0 -16 9 -16
21 0 24 23 21 28 -4z"/>
<path d="M1815 1349 c-6 -17 -2 -55 7 -65 4 -3 47 -6 97 -7 89 -2 91 -1 91 21
0 14 4 21 11 17 6 -4 8 -14 5 -22 -4 -11 -2 -13 9 -9 8 3 14 0 12 -7 -1 -7 9
-12 22 -12 22 0 25 5 25 35 l1 35 -49 2 c-27 1 -53 8 -58 15 -6 10 -10 10 -18
-2 -9 -13 -10 -13 -10 0 -1 13 -2 13 -13 0 -16 -20 -105 -20 -117 0 -8 12 -10
12 -15 -1z m22 -51 c-3 -8 -6 -5 -6 6 -1 11 2 17 5 13 3 -3 4 -12 1 -19z m243
12 c0 -5 -4 -10 -10 -10 -5 0 -10 5 -10 10 0 6 5 10 10 10 6 0 10 -4 10 -10z"/>
<path d="M1058 1228 c-2 -6 -2 -23 0 -38 4 -26 7 -28 49 -27 38 0 46 4 54 24
12 32 12 33 -6 33 -8 0 -15 -6 -15 -12 0 -9 -3 -9 -9 1 -5 8 -18 12 -31 8 -16
-4 -20 -2 -16 9 3 8 -1 14 -8 14 -8 0 -16 -5 -18 -12z m62 -38 c0 -5 -4 -10
-10 -10 -5 0 -10 5 -10 10 0 6 5 10 10 10 6 0 10 -4 10 -10z"/>
<path d="M1470 1228 c0 -10 -21 -13 -77 -12 -49 1 -81 -2 -85 -10 -6 -8 -8 -8
-8 1 0 7 -19 11 -50 11 -49 1 -50 0 -50 -29 0 -16 0 -32 0 -36 -1 -15 40 -14
46 0 3 9 14 12 30 9 16 -3 24 0 24 9 0 11 2 11 10 -1 7 -12 11 -10 19 10 9 24
10 24 10 2 1 -22 3 -22 106 -20 79 2 105 0 105 -9 0 -16 32 -17 48 -1 7 7 38
11 82 10 l70 -2 0 40 c0 27 -4 40 -13 40 -9 0 -13 -10 -12 -27 1 -16 0 -20 -2
-10 -4 14 -14 17 -54 14 -35 -2 -49 1 -49 10 0 7 -4 13 -10 13 -5 0 -10 -4
-10 -10 0 -5 -11 -10 -25 -10 -14 0 -25 -6 -25 -12 0 -9 -3 -9 -9 1 -5 8 -18
12 -30 8 -14 -3 -21 0 -21 9 0 8 -4 14 -10 14 -5 0 -10 -6 -10 -12z m-240 -38
c0 -5 -4 -10 -10 -10 -5 0 -10 5 -10 10 0 6 5 10 10 10 6 0 10 -4 10 -10z
m300 0 c0 -5 -4 -10 -10 -10 -5 0 -10 5 -10 10 0 6 5 10 10 10 6 0 10 -4 10
-10z m50 0 c0 -5 -4 -10 -10 -10 -5 0 -10 5 -10 10 0 6 5 10 10 10 6 0 10 -4
10 -10z m90 0 c-19 -13 -30 -13 -30 0 0 6 10 10 23 10 18 0 19 -2 7 -10z"/>
<path d="M2100 1228 c0 -10 -38 -13 -160 -12 l-160 2 0 -29 c0 -34 17 -39 23
-6 4 20 4 20 6 1 1 -20 7 -21 116 -22 112 -1 115 0 116 21 l0 22 9 -22 c7 -17
18 -23 39 -23 23 0 31 5 34 23 l4 22 2 -22 c2 -34 21 -28 21 7 0 20 -5 30 -15
30 -8 0 -15 5 -15 10 0 6 -4 10 -10 10 -5 0 -10 -6 -10 -12z m-5 -38 c-3 -5
-10 -10 -16 -10 -5 0 -9 5 -9 10 0 6 7 10 16 10 8 0 12 -4 9 -10z"/>
<path d="M796 1157 c-38 -47 -47 -73 -20 -63 9 3 28 9 42 12 l27 7 -29 -32
c-16 -17 -26 -34 -23 -38 10 -9 117 25 117 38 0 12 -27 11 -53 -2 l-22 -12 23
25 c34 37 29 52 -15 43 l-38 -7 24 26 c18 19 22 29 14 37 -7 7 -21 -3 -47 -34z"/>
<path d="M2354 1175 c-14 -21 -15 -31 -6 -51 29 -62 117 -48 110 19 -2 24 -8
32 -22 32 -21 0 -44 -30 -33 -42 5 -4 12 -1 17 7 12 19 22 8 14 -14 -4 -11
-15 -16 -33 -14 -34 4 -41 42 -12 58 27 14 27 30 1 30 -11 0 -27 -11 -36 -25z"/>
<path d="M1780 1122 c-8 -3 -18 -9 -21 -14 -3 -5 -33 -10 -67 -10 -54 -1 -62
-4 -65 -22 -4 -20 -4 -20 -6 2 -1 24 -16 30 -24 10 -3 -7 -6 -3 -6 10 -1 23
-17 30 -23 10 -3 -7 -19 -11 -40 -10 -28 2 -37 -2 -41 -18 -7 -26 8 -34 61
-36 32 -1 42 2 42 15 1 15 1 15 10 0 8 -13 25 -17 79 -16 68 0 70 1 74 26 l4
26 2 -27 c1 -21 6 -28 21 -28 11 0 20 6 20 13 0 8 4 7 10 -3 8 -12 10 -11 10
8 0 12 5 22 10 22 6 0 10 -9 10 -21 0 -11 5 -17 10 -14 6 3 10 -1 10 -10 0
-11 7 -15 23 -13 18 2 23 10 25 41 3 37 2 39 -25 37 -56 -4 -82 0 -85 13 -2 8
-10 12 -18 9z m-200 -53 c0 -5 -4 -9 -10 -9 -5 0 -10 7 -10 16 0 8 5 12 10 9
6 -3 10 -10 10 -16z m130 6 c0 -1 -9 -5 -20 -8 -12 -3 -20 0 -20 8 0 8 8 11
20 8 11 -3 20 -7 20 -8z m180 -1 c0 -8 -5 -12 -10 -9 -6 4 -8 11 -5 16 9 14
15 11 15 -7z"/>
<path d="M1438 1108 c-3 -7 -28 -10 -71 -9 l-67 2 0 -31 c0 -28 3 -30 35 -30
31 0 35 3 35 26 0 14 4 23 10 19 6 -3 10 -16 10 -28 0 -16 3 -18 9 -8 6 9 11
10 15 2 4 -6 16 -11 27 -11 16 0 19 7 19 40 0 37 -13 55 -22 28z m2 -34 c0 -8
-5 -12 -10 -9 -6 4 -8 11 -5 16 9 14 15 11 15 -7z"/>
<path d="M881 1020 c-33 -54 -27 -69 19 -45 33 17 38 11 14 -23 -26 -37 -6
-45 43 -17 24 15 47 25 50 22 2 -3 -2 -18 -10 -34 -37 -73 -27 -94 26 -53 l25
20 -11 -35 c-6 -19 -7 -38 -4 -41 7 -7 96 56 97 69 0 14 -24 7 -48 -15 -23
-21 -25 -22 -17 -3 14 36 17 65 8 65 -6 0 -22 -9 -37 -21 -29 -23 -31 -21 -15
15 10 20 9 28 -6 42 -17 17 -19 17 -48 1 l-30 -18 17 26 c10 15 15 33 12 41
-5 13 -10 13 -36 -1 -31 -16 -41 -7 -15 15 8 7 15 19 15 26 0 27 -19 13 -49
-36z"/>
<path d="M2262 1047 c-12 -13 -22 -27 -21 -33 0 -5 18 -24 40 -43 41 -35 63
-35 41 -1 -17 28 -16 30 22 30 44 0 55 16 17 23 -17 4 -30 14 -34 26 -7 28
-38 27 -65 -2z m48 -12 c0 -16 -27 -32 -37 -21 -7 7 16 36 28 36 5 0 9 -7 9
-15z"/>
<path d="M1231 999 c-15 -6 -21 -14 -17 -25 3 -9 6 -24 6 -34 0 -13 7 -18 20
-17 14 1 20 8 20 25 0 29 20 19 21 -11 0 -20 1 -21 8 -3 6 17 8 17 14 4 10
-27 41 -14 48 18 5 26 3 30 -18 32 -13 1 -26 -5 -29 -13 -5 -11 -10 -9 -27 9
-18 19 -27 22 -46 15z m16 -51 c-3 -8 -6 -5 -6 6 -1 11 2 17 5 13 3 -3 4 -12
1 -19z"/>
<path d="M1687 1004 c-3 -4 -4 -20 -2 -38 4 -26 4 -27 -3 -6 -6 20 -15 25 -45
27 -21 1 -37 -2 -37 -9 0 -7 -5 -6 -15 2 -12 10 -18 10 -29 1 -10 -8 -16 -9
-21 -2 -7 12 -73 10 -92 -2 -6 -4 -13 -2 -15 4 -2 7 -13 9 -26 4 -19 -6 -23
-13 -20 -43 3 -42 35 -59 45 -23 4 17 8 18 24 8 16 -10 21 -9 29 3 7 11 10 11
10 2 0 -22 20 -2 21 21 1 20 2 20 6 2 6 -25 23 -44 23 -26 0 11 3 11 15 1 12
-10 18 -10 30 0 11 9 15 9 15 1 0 -22 20 0 21 22 1 20 2 20 8 -3 5 -19 13 -25
36 -25 26 0 31 4 37 35 6 34 -2 57 -15 44z m-280 -56 c-3 -8 -6 -5 -6 6 -1 11
2 17 5 13 3 -3 4 -12 1 -19z"/>
<path d="M1838 996 c-9 -6 -18 -23 -21 -36 -4 -24 -4 -24 -6 3 -1 26 -21 40
-21 15 0 -10 -3 -10 -9 0 -14 23 -46 10 -49 -21 -2 -16 -1 -35 2 -43 5 -12 10
-11 28 5 12 12 26 17 32 12 6 -4 51 -7 100 -6 66 1 91 5 94 15 3 9 -1 11 -12
7 -10 -4 -16 -1 -16 8 0 9 6 12 16 8 12 -4 15 -2 12 8 -3 8 -16 13 -31 12 -15
-1 -26 1 -24 5 2 8 -7 12 -28 12 -10 0 -12 -6 -8 -17 6 -16 5 -17 -13 -3 -10
8 -21 18 -24 22 -3 3 -13 1 -22 -6z m-72 -53 c-10 -10 -19 5 -10 18 6 11 8 11
12 0 2 -7 1 -15 -2 -18z m114 18 c0 -6 -4 -13 -10 -16 -5 -3 -10 1 -10 9 0 9
5 16 10 16 6 0 10 -4 10 -9z"/>
<path d="M2150 939 c-16 -30 -9 -59 21 -82 23 -16 30 -17 50 -7 33 18 40 31
34 59 -9 34 -29 51 -64 51 -20 0 -34 -7 -41 -21z m73 -20 c14 -22 2 -49 -22
-49 -22 0 -39 40 -26 60 9 15 35 9 48 -11z"/>
<path d="M1898 799 c-23 -13 -24 -72 -2 -93 31 -31 94 -12 94 29 0 29 -9 36
-39 28 -26 -7 -22 -30 4 -25 16 3 17 1 6 -12 -20 -23 -40 -20 -53 10 -10 22
-10 28 5 39 10 7 27 10 39 7 15 -3 19 -1 16 9 -6 17 -47 22 -70 8z"/>
<path d="M1316 743 c-18 -53 -20 -73 -7 -73 9 0 41 83 41 107 0 29 -19 10 -34
-34z"/>
<path d="M2082 778 c6 -18 28 -21 28 -4 0 9 -7 16 -16 16 -9 0 -14 -5 -12 -12z"/>
<path d="M1759 756 c-27 -13 -38 -68 -18 -92 12 -14 55 -19 83 -8 20 8 22 64
2 64 -40 0 -61 -25 -28 -33 16 -4 15 -5 -2 -12 -14 -6 -23 -3 -33 11 -23 32
-12 49 31 47 24 -2 36 1 34 9 -7 19 -44 27 -69 14z"/>
<path d="M1150 751 c0 -6 5 -13 10 -16 6 -3 10 1 10 9 0 9 -4 16 -10 16 -5 0
-10 -4 -10 -9z"/>
<path d="M1453 750 c-32 -13 -29 -38 7 -58 16 -9 30 -20 30 -24 0 -15 -33 -8
-46 9 -16 22 -32 8 -18 -15 7 -11 24 -17 45 -17 29 0 34 4 37 26 2 19 -3 28
-23 37 -14 7 -23 17 -20 23 5 7 14 4 26 -7 25 -23 37 -10 14 16 -20 22 -21 22
-52 10z"/>
<path d="M1592 734 c-26 -18 -30 -65 -6 -88 22 -23 71 -20 84 3 17 32 12 69
-12 85 -12 9 -27 16 -33 16 -6 0 -21 -7 -33 -16z m64 -36 c7 -25 -18 -53 -40
-45 -19 8 -22 63 -3 70 19 7 36 -3 43 -25z"/>
<path d="M1617 2419 c-9 -6 -27 -9 -40 -7 -17 2 -23 -3 -25 -20 -3 -22 -1 -23
67 -21 39 1 71 6 71 12 0 6 5 6 13 0 6 -6 26 -10 43 -10 30 0 31 1 20 29 -11
29 -26 38 -26 16 0 -9 -4 -8 -10 2 -8 12 -11 13 -19 1 -5 -7 -11 -9 -14 -4 -8
13 -59 14 -80 2z m43 -19 c0 -5 -2 -10 -4 -10 -3 0 -8 5 -11 10 -3 6 -1 10 4
10 6 0 11 -4 11 -10z"/>
<path d="M1330 2249 c0 -4 -13 -5 -30 -3 -27 5 -30 2 -30 -20 0 -25 2 -26 70
-26 45 0 70 4 70 11 0 8 4 8 15 -1 8 -6 23 -9 35 -5 12 4 20 2 20 -5 0 -6 4
-9 10 -5 10 6 4 31 -13 53 -8 11 -13 9 -23 -10 l-13 -23 -1 25 c-1 14 -4 19
-7 12 -2 -6 -10 -9 -16 -5 -15 10 -87 11 -87 2z m50 -19 c0 -5 -4 -10 -10 -10
-5 0 -10 5 -10 10 0 6 5 10 10 10 6 0 10 -4 10 -10z"/>
<path d="M1936 2254 c-26 -25 -20 -81 10 -100 36 -24 78 -9 82 29 3 23 0 27
-22 27 -14 0 -26 -5 -26 -10 0 -6 8 -10 18 -8 24 4 21 -23 -4 -33 -53 -19 -87
59 -39 88 26 16 31 16 50 -3 20 -20 33 -11 15 11 -16 20 -64 19 -84 -1z"/>
<path d="M1050 1908 c0 -5 -12 -8 -27 -6 -23 2 -29 -1 -31 -19 -3 -22 0 -23
67 -23 50 0 71 4 71 13 0 9 2 9 8 0 4 -6 23 -11 43 -10 35 1 36 2 25 29 -13
34 -20 35 -34 6 l-11 -23 -1 25 c-1 14 -4 19 -7 12 -2 -6 -10 -9 -16 -5 -18
12 -87 12 -87 1z m50 -18 c0 -5 -4 -10 -10 -10 -5 0 -10 5 -10 10 0 6 5 10 10
10 6 0 10 -4 10 -10z"/>
<path d="M1677 2081 c-19 -21 -23 -39 -14 -73 13 -50 107 -52 107 -3 0 21 -5
25 -27 24 l-28 0 25 -10 c24 -10 24 -11 7 -24 -10 -7 -26 -12 -35 -10 -9 2
-20 4 -23 4 -13 2 -19 52 -9 71 12 22 49 27 68 8 6 -6 15 -9 19 -5 11 12 -15
31 -46 33 -17 1 -36 -5 -44 -15z"/>
<path d="M1418 1909 c-12 -7 -18 -23 -18 -49 0 -31 5 -43 25 -56 51 -34 110
27 83 84 -14 30 -59 40 -90 21z m66 -15 c9 -8 16 -22 16 -30 0 -53 -62 -76
-80 -29 -21 54 26 97 64 59z"/>
<path d="M1154 1729 c-19 -21 -18 -21 5 -40 13 -10 32 -19 43 -19 13 0 18 -6
16 -17 -5 -25 -39 -29 -55 -7 -7 10 -16 14 -20 10 -5 -4 2 -16 15 -26 41 -34
105 5 73 44 -6 8 -25 16 -42 20 -18 3 -29 11 -27 18 7 20 40 22 54 3 7 -9 15
-12 18 -6 7 10 -31 41 -50 41 -6 0 -19 -9 -30 -21z"/>
<path d="M930 1515 c0 -38 3 -65 7 -62 7 8 5 119 -3 126 -2 2 -4 -26 -4 -64z"/>
<path d="M2416 2548 c-45 -52 -54 -68 -37 -68 15 0 102 100 96 110 -9 15 -10
14 -59 -42z"/>
<path d="M700 2558 c0 -6 14 -40 31 -75 32 -66 56 -84 46 -34 -7 34 10 55 33
41 21 -13 42 -12 38 1 -4 13 -117 78 -135 79 -7 0 -13 -5 -13 -12z m60 -49 c0
-6 -4 -7 -10 -4 -5 3 -10 11 -10 16 0 6 5 7 10 4 6 -3 10 -11 10 -16z"/>
<path d="M2514 2459 c-27 -23 -51 -46 -52 -51 -2 -5 8 -25 23 -44 19 -25 30
-33 38 -25 8 8 4 17 -11 34 -26 28 -27 33 -5 41 11 5 23 -1 34 -15 10 -13 21
-19 28 -14 9 5 6 14 -10 31 -18 19 -20 27 -10 37 10 9 16 7 31 -10 10 -13 23
-23 29 -23 20 0 11 26 -18 54 l-28 27 -49 -42z"/>
<path d="M606 2463 c-4 -4 8 -20 26 -36 l33 -28 -40 7 c-22 4 -44 7 -49 8 -6
0 -11 -6 -13 -14 -3 -17 93 -90 117 -90 9 1 -1 15 -25 37 l-40 35 35 -7 c19
-3 42 -9 52 -11 28 -8 33 18 7 37 -13 9 -37 29 -54 43 -32 28 -38 30 -49 19z"/>
<path d="M2665 2357 c-4 -9 -4 -20 -1 -26 3 -5 -16 -23 -44 -40 -48 -30 -64
-51 -37 -51 7 0 34 13 59 29 37 23 48 27 52 15 7 -17 26 -19 26 -1 0 6 -12 30
-25 51 -19 31 -25 36 -30 23z"/>
<path d="M480 2288 c-11 -18 -20 -35 -20 -38 1 -3 29 -21 63 -42 40 -23 66
-33 72 -27 10 10 5 14 -35 39 -22 13 -4 25 37 25 20 0 38 6 40 13 3 8 -7 12
-30 12 -26 0 -36 5 -45 25 -17 37 -57 34 -82 -7z m60 -10 c0 -7 -4 -18 -8 -25
-11 -17 -36 1 -29 21 7 19 37 22 37 4z"/>
<path d="M2729 2185 c-13 -20 -39 -43 -57 -52 -41 -20 -28 -44 13 -25 14 7 48
12 75 12 28 0 50 5 50 10 0 6 -19 10 -42 10 l-41 0 21 23 c22 23 30 57 13 57
-5 0 -19 -16 -32 -35z"/>
<path d="M412 2150 c-12 -19 -22 -40 -22 -47 0 -7 21 -21 47 -33 81 -36 87
-35 106 6 23 47 6 71 -17 25 -11 -20 -21 -28 -32 -24 -9 3 -13 12 -8 22 11 27
10 44 -3 48 -7 2 -15 -7 -19 -21 -4 -17 -13 -26 -25 -26 -22 0 -23 4 -8 31 5
11 9 28 7 37 -3 13 -10 8 -26 -18z"/>
<path d="M356 2012 c-13 -21 -18 -92 -7 -92 6 0 14 6 17 14 5 12 13 12 57 0
62 -16 67 -17 67 -5 0 6 -25 18 -55 27 -46 15 -55 22 -55 41 0 23 -14 31 -24
15z"/>
<path d="M2763 1863 c-44 -30 -21 -103 32 -103 30 0 77 18 87 33 15 23 8 66
-11 77 -28 15 -82 11 -108 -7z m99 -27 c12 -17 10 -22 -16 -35 -34 -19 -70
-11 -74 17 -6 37 68 52 90 18z"/>
<path d="M310 1832 c0 -11 32 -21 70 -23 19 0 12 -6 -28 -21 -29 -12 -51 -26
-49 -32 2 -6 26 -14 53 -17 27 -4 59 -8 71 -10 41 -7 25 16 -18 27 l-43 10 47
14 c49 13 65 26 51 40 -14 12 -154 24 -154 12z"/>
<path d="M2773 1693 c-36 -7 -27 -23 12 -23 31 0 35 -3 35 -25 0 -16 6 -25 15
-25 9 0 15 9 15 25 0 33 28 33 32 0 5 -42 23 -33 26 13 l3 42 -58 -1 c-32 -1
-68 -4 -80 -6z"/>
<path d="M300 1620 c0 -6 32 -10 75 -10 43 0 75 4 75 10 0 6 -32 10 -75 10
-43 0 -75 -4 -75 -10z"/>
<path d="M367 1454 c-4 -4 -7 -18 -7 -31 0 -19 5 -23 31 -23 27 0 30 3 27 28
-3 26 -34 43 -51 26z"/>
<path d="M2792 1448 c-18 -18 -15 -36 9 -49 28 -15 54 9 44 40 -7 23 -34 28
-53 9z"/>
<path d="M2724 1317 c-3 -10 4 -28 16 -44 l22 -28 -36 -8 c-22 -6 -36 -15 -36
-24 0 -12 7 -14 33 -8 37 9 73 11 102 4 13 -2 20 1 20 11 0 8 -10 17 -23 20
-12 3 -38 25 -57 49 -27 34 -36 40 -41 28z"/>
<path d="M423 1282 c-35 -5 -66 -51 -59 -86 9 -44 34 -67 65 -59 39 9 41 11
29 43 -13 38 -41 42 -32 5 5 -20 3 -24 -10 -19 -41 16 -26 81 20 88 44 7 73
-41 43 -71 -8 -8 -7 -13 2 -18 13 -9 39 20 39 42 0 8 -7 27 -15 42 -14 29 -41
39 -82 33z"/>
<path d="M2651 1124 c-12 -15 -21 -38 -21 -51 0 -34 42 -73 80 -73 70 0 110
94 52 124 -28 15 -29 14 -45 -19 -11 -22 -13 -36 -6 -41 12 -7 12 -7 27 21 10
19 11 19 18 1 16 -41 -29 -69 -73 -45 -31 16 -28 60 5 74 12 5 22 15 22 22 0
23 -38 14 -59 -13z"/>
<path d="M493 1087 c-34 -18 -62 -36 -62 -41 -2 -19 43 -96 56 -96 17 0 16 15
-3 45 -16 24 -13 55 4 55 5 0 15 -13 22 -30 7 -16 19 -30 26 -30 18 0 17 20
-1 44 -19 25 -19 32 0 40 10 3 20 -6 31 -27 21 -41 21 -40 33 -32 7 4 2 23
-14 56 -14 27 -26 49 -28 49 -1 -1 -30 -15 -64 -33z"/>
<path d="M2551 954 c-28 -35 -26 -65 4 -98 45 -49 114 -30 130 36 6 22 1 33
-23 58 -39 39 -82 40 -111 4z m89 -24 c23 -23 25 -41 8 -58 -26 -26 -88 0 -88
38 0 40 47 53 80 20z"/>
<path d="M585 920 c-27 -21 -51 -44 -53 -50 -6 -16 21 -11 48 10 37 29 40 25
19 -31 -13 -33 -17 -55 -10 -62 13 -13 120 63 121 86 0 23 -5 22 -46 -9 -39
-30 -39 -30 -19 26 29 82 16 89 -60 30z"/>
<path d="M710 764 l-55 -55 40 -35 c22 -18 43 -34 48 -34 16 0 6 26 -19 47
-22 19 -25 25 -14 38 11 13 16 12 38 -10 28 -28 42 -32 42 -10 0 8 -4 15 -10
15 -15 0 -33 41 -23 51 6 6 19 -1 33 -16 23 -24 50 -33 50 -17 0 4 -17 25 -38
45 l-38 37 -54 -56z"/>
<path d="M2400 782 c0 -4 24 -32 54 -61 l54 -53 31 32 c17 18 31 36 31 40 0
20 -17 17 -40 -5 l-27 -26 -36 41 c-33 36 -67 53 -67 32z"/>
<path d="M870 696 c0 -3 7 -12 16 -20 14 -15 13 -21 -17 -67 -21 -34 -29 -53
-22 -60 7 -7 23 7 48 41 27 36 41 48 48 41 15 -15 37 -14 37 2 0 6 -20 24 -44
40 -39 24 -66 34 -66 23z"/>
<path d="M2284 677 c-8 -21 29 -149 41 -145 6 2 10 13 10 25 0 31 31 61 47 45
14 -14 48 -16 48 -2 0 9 -97 76 -127 87 -7 3 -15 -2 -19 -10z m53 -59 c-6 -4
-15 -2 -19 5 -14 21 -9 28 12 15 13 -9 16 -14 7 -20z"/>
<path d="M2148 600 c-20 -11 -40 -24 -43 -30 -5 -8 42 -107 60 -128 7 -8 95
42 95 54 0 18 -2 18 -45 -3 -31 -15 -37 -15 -45 -3 -7 11 0 19 27 33 26 14 32
22 24 30 -8 8 -19 7 -40 -6 -26 -15 -41 -14 -41 4 0 4 16 17 35 29 19 12 33
26 29 31 -7 12 -13 11 -56 -11z"/>
<path d="M1062 527 c-35 -62 -42 -88 -25 -94 16 -6 77 127 65 139 -6 6 -22
-13 -40 -45z"/>
<path d="M2010 536 c0 -2 7 -22 15 -45 8 -22 11 -41 7 -41 -4 1 -23 14 -42 30
-36 32 -60 38 -60 17 0 -22 41 -137 49 -137 17 0 19 14 5 52 -8 22 -14 43 -14
45 0 2 20 -12 45 -32 66 -55 79 -43 48 44 -15 41 -31 71 -39 71 -8 0 -14 -2
-14 -4z"/>
<path d="M1213 508 c-21 -10 -43 -54 -43 -88 0 -24 42 -60 72 -60 28 0 66 34
49 44 -6 4 -19 1 -31 -6 -42 -26 -75 23 -46 67 21 33 54 32 66 0 12 -32 30
-32 30 -1 0 40 -54 65 -97 44z"/>
<path d="M1771 473 c-20 -4 -22 -9 -17 -36 4 -18 9 -51 13 -75 l6 -43 46 6
c61 8 71 12 71 26 0 8 -14 10 -44 7 -33 -4 -46 -2 -50 9 -6 14 30 33 60 33 9
0 14 6 12 12 -3 8 -18 12 -40 10 -24 -2 -37 1 -41 11 -4 11 5 16 34 21 21 3
39 11 39 16 0 10 -44 11 -89 3z"/>
<path d="M1584 452 c-6 -4 -16 -17 -23 -29 -29 -56 2 -113 63 -113 54 0 66 8
66 46 0 32 -2 34 -35 34 -19 0 -35 -4 -35 -10 0 -5 9 -10 20 -10 26 0 26 -26
-1 -33 -37 -10 -73 46 -51 79 13 20 48 25 62 9 14 -17 40 -20 40 -6 0 31 -74
55 -106 33z"/>
</g>
</svg>
